<mxfile host="app.diagrams.net" modified="2023-08-21T14:47:25.085Z" agent="Mozilla/5.0 (Macintosh; Intel Mac OS X 10_15_7) AppleWebKit/537.36 (KHTML, like Gecko) Chrome/113.0.0.0 Safari/537.36" version="21.6.8" etag="2i8G0ZBtLELRwjrJcZvQ" type="github">
  <diagram name="Page-1" id="mQZyDT6E7hfTlfs8Gn5O">
    <mxGraphModel>
      <root>
        <mxCell id="0" />
        <mxCell id="1" parent="0" />
      </root>
    </mxGraphModel>
  </diagram>
</mxfile>
